<svg xmlns="http://www.w3.org/2000/svg" xmlns:wrs="http://www.wiris.com/xml/cvs-extension" height="53" width="75" wrs:baseline="34"><!--MathML: <math xmlns="http://www.w3.org/1998/Math/MathML"><msqrt><mn>2</mn></msqrt><msqrt><mfrac><msqrt><mn>5</mn></msqrt><msqrt><mn>6</mn></msqrt></mfrac></msqrt></math>--><defs><style type="text/css"/></defs><polyline fill="none" points="12,-16 11,-16 5,0 2,-6" stroke="#000000" stroke-linecap="square" stroke-width="1" transform="translate(0.5,35.5)"/><polyline fill="none" points="5,0 2,-6 0,-5" stroke="#000000" stroke-linecap="square" stroke-width="1" transform="translate(0.5,35.5)"/><line stroke="#000000" stroke-linecap="square" stroke-width="1" x1="12.5" x2="24.5" y1="19.5" y2="19.5"/><text font-family="Arial" font-size="16" text-anchor="middle" x="18.5" y="34">2</text><polyline fill="none" points="12,-46 11,-46 5,0 2,-18" stroke="#000000" stroke-linecap="square" stroke-width="1" transform="translate(25.5,50.5)"/><polyline fill="none" points="5,0 2,-18 0,-16" stroke="#000000" stroke-linecap="square" stroke-width="1" transform="translate(25.5,50.5)"/><line stroke="#000000" stroke-linecap="square" stroke-width="1" x1="37.5" x2="73.5" y1="4.5" y2="4.5"/><line stroke="#000000" stroke-linecap="square" stroke-width="1" x1="41.5" x2="69.5" y1="28.5" y2="28.5"/><polyline fill="none" points="12,-16 11,-16 5,0 2,-6" stroke="#000000" stroke-linecap="square" stroke-width="1" transform="translate(43.5,24.5)"/><polyline fill="none" points="5,0 2,-6 0,-5" stroke="#000000" stroke-linecap="square" stroke-width="1" transform="translate(43.5,24.5)"/><line stroke="#000000" stroke-linecap="square" stroke-width="1" x1="55.5" x2="67.5" y1="8.5" y2="8.5"/><text font-family="Arial" font-size="16" text-anchor="middle" x="61.5" y="23">5</text><polyline fill="none" points="12,-16 11,-16 5,0 2,-6" stroke="#000000" stroke-linecap="square" stroke-width="1" transform="translate(43.5,50.5)"/><polyline fill="none" points="5,0 2,-6 0,-5" stroke="#000000" stroke-linecap="square" stroke-width="1" transform="translate(43.5,50.5)"/><line stroke="#000000" stroke-linecap="square" stroke-width="1" x1="55.5" x2="67.5" y1="34.5" y2="34.5"/><text font-family="Arial" font-size="16" text-anchor="middle" x="61.5" y="49">6</text></svg>